<?xml version="1.0" encoding="utf-8"?>
<!-- Generator: Adobe Illustrator 26.0.1, SVG Export Plug-In . SVG Version: 6.00 Build 0)  -->
<svg version="1.1" id="Layer_1" xmlns="http://www.w3.org/2000/svg" xmlns:xlink="http://www.w3.org/1999/xlink" x="0px" y="0px"
	 viewBox="0 0 595.28 147.89" style="enable-background:new 0 0 595.28 147.89;" xml:space="preserve">
<style type="text/css">
	.st0{fill:#BBBBBB;}
	.st1{fill:#FFFFFF;}
	.st2{fill:#002D74;}
	.st3{fill:url(#SVGID_1_);}
	.st4{fill:url(#SVGID_00000176030122234564549760000009463179064118455684_);}
	.st5{fill:#898A8D;}
</style>
<g>
	<g>
		<rect x="190.2" y="5.59" class="st0" width="2.56" height="136.82"/>
	</g>
	<g>
		<polygon class="st1" points="91.4,89.98 63.89,105.95 36.39,89.98 36.39,58.03 63.89,42.05 91.4,58.03 79.94,64.68 63.89,55.36 
			47.85,64.68 47.85,83.32 63.89,92.64 79.94,83.32 		"/>
		<path class="st1" d="M63.9,5.59L5,39.81v68.4l58.9,34.2l58.89-34.2v-68.4L63.9,5.59z M105.34,98.07L63.9,122.13L22.45,98.07V49.94
			L63.9,25.87l41.44,24.07V98.07z"/>
	</g>
	<g>
		<path class="st0" d="M260.18,51.52h24.64c6.07,0,10.84,1.67,13.88,4.7c2.43,2.43,3.64,5.38,3.64,9.02v0.15
			c0,5.99-3.18,9.33-6.98,11.45c6.14,2.35,9.93,5.91,9.93,13.04v0.15c0,9.71-7.89,14.56-19.87,14.56h-25.25V51.52z M282.32,72.98
			c5.16,0,8.42-1.67,8.42-5.61v-0.15c0-3.49-2.73-5.46-7.66-5.46h-11.53v11.22H282.32z M285.43,94.36c5.16,0,8.26-1.82,8.26-5.76
			v-0.15c0-3.56-2.65-5.76-8.64-5.76h-13.5v11.68H285.43z"/>
		<path class="st0" d="M322.51,51.52h24.27c6.75,0,11.98,1.9,15.47,5.38c2.96,2.96,4.55,7.13,4.55,12.13v0.15
			c0,8.57-4.63,13.95-11.37,16.45l12.97,18.96h-13.65l-11.37-16.98h-9.18v16.98h-11.68V51.52z M346.02,77.3
			c5.69,0,8.95-3.03,8.95-7.51v-0.15c0-5.01-3.49-7.58-9.18-7.58h-11.6V77.3H346.02z"/>
		<path class="st0" d="M387.39,51.52h11.68v53.08h-11.68V51.52z"/>
		<path class="st0" d="M420.57,51.52h20.7c16.68,0,28.21,11.45,28.21,26.39v0.15c0,14.94-11.53,26.54-28.21,26.54h-20.7V51.52z
			 M441.28,94.06c9.55,0,16-6.45,16-15.85v-0.15c0-9.4-6.45-16-16-16h-9.02v32H441.28z"/>
		<path class="st0" d="M482.5,78.21v-0.15c0-15.09,11.75-27.45,27.83-27.45c9.55,0,15.32,2.58,20.85,7.28l-7.36,8.87
			c-4.09-3.41-7.73-5.38-13.88-5.38c-8.49,0-15.24,7.51-15.24,16.53v0.15c0,9.71,6.67,16.83,16.08,16.83
			c4.25,0,8.04-1.06,10.99-3.18v-7.58h-11.75V74.04h23.05v23.05c-5.46,4.62-12.97,8.42-22.67,8.42
			C493.88,105.51,482.5,93.91,482.5,78.21z"/>
		<path class="st0" d="M550.58,51.52h40.04v10.39h-28.44v10.77h25.02v10.39h-25.02v11.15H591v10.39h-40.42V51.52z"/>
	</g>
</g>
</svg>
