<svg width="657" height="120" viewBox="0 0 657 120" fill="none" xmlns="http://www.w3.org/2000/svg">
<path d="M0 27.8789L27.2725 43.6364V70.3028L0 54.5454V27.8789Z" fill="black"/>
<path d="M47.8784 0L74.5448 15.1514L27.2725 43.636L0 27.8786L47.8784 0Z" fill="#28282E"/>
<path d="M74.5476 92.1213L47.2751 76.3639L47.2751 49.6974L74.5476 65.4549L74.5476 92.1213Z" fill="black"/>
<path d="M26.6682 120L0.00178127 104.849L47.2741 76.364L74.5466 92.1214L26.6682 120Z" fill="#28282E"/>
<path d="M142.63 97C154.63 97 167.83 89.9 167.83 75.1C167.83 65.3 162.13 59.5 149.33 54.4L144.53 52.5C137.13 49.5 135.33 47.1 135.33 44C135.33 40 138.63 38 142.93 38C147.33 38 150.93 40.3 154.03 45.7L165.73 39.1C162.33 31.6 154.83 24 142.33 24C130.03 24 119.73 31.5 119.73 43.8C119.73 55.3 128.43 60.5 137.93 64.3L142.33 66C149.13 68.7 151.43 70.7 151.43 74.9C151.43 80.4 147.13 82.7 142.43 82.7C135.73 82.7 131.93 78.1 129.93 73.3L117.13 79.2C119.83 89.6 130.13 97 142.63 97Z" fill="#28282E"/>
<path d="M174.708 38.5H190.208V25H174.708V38.5ZM174.708 96H190.208V44H174.708V96Z" fill="#28282E"/>
<path d="M223.61 43C210.21 43 197.11 52.5 197.11 70.1C197.11 87.2 210.11 97 224.51 97C234.01 97 241.41 93.1 245.71 87.7L238.71 80.4C234.91 83.3 230.81 84.4 226.21 84.4C219.31 84.4 214.11 81.6 212.01 76H249.01C252.31 52.2 236.81 43 223.61 43ZM223.81 56C229.01 56 234.31 58.9 235.41 64.9H211.71C213.41 58.7 218.61 56 223.81 56Z" fill="#28282E"/>
<path d="M287.346 43C279.946 43 274.846 46.2 271.946 50.6V44H256.446V96H271.946V68.1C271.946 61.6 275.246 56.8 281.546 56.8C287.946 56.8 291.246 61.6 291.246 68.1V96H306.746V65.4C306.746 49.5 297.846 43 287.346 43Z" fill="#28282E"/>
<path d="M347.014 43C339.614 43 334.514 46.2 331.614 50.6V44H316.114V96H331.614V68.1C331.614 61.6 334.914 56.8 341.214 56.8C347.614 56.8 350.914 61.6 350.914 68.1V96H366.414V65.4C366.414 49.5 357.514 43 347.014 43Z" fill="#28282E"/>
<path d="M398.082 97C407.282 97 412.682 92 413.482 90.1H413.782V96H429.282V44H413.782V49.9H413.482C412.682 48 407.282 43 398.082 43C386.282 43 373.282 51.9 373.282 70C373.282 88.1 386.282 97 398.082 97ZM401.282 83.2C394.682 83.2 388.582 78.4 388.582 70C388.582 61.6 394.682 56.8 401.282 56.8C408.082 56.8 414.182 61.5 414.182 70C414.182 78.5 408.082 83.2 401.282 83.2Z" fill="#28282E"/>
<path d="M454.473 81.5V25H438.673V96H480.873V81.5H454.473Z" fill="#28282E"/>
<path d="M510.817 43C497.417 43 484.317 52.5 484.317 70.1C484.317 87.2 497.317 97 511.717 97C521.217 97 528.617 93.1 532.917 87.7L525.917 80.4C522.117 83.3 518.017 84.4 513.417 84.4C506.517 84.4 501.317 81.6 499.217 76H536.217C539.517 52.2 524.017 43 510.817 43ZM511.017 56C516.217 56 521.517 58.9 522.617 64.9H498.917C500.617 58.7 505.817 56 511.017 56Z" fill="#28282E"/>
<path d="M574.553 43C567.153 43 562.053 46.2 559.153 50.6V44H543.653V96H559.153V68.1C559.153 61.6 562.453 56.8 568.753 56.8C575.153 56.8 578.453 61.6 578.453 68.1V96H593.953V65.4C593.953 49.5 585.053 43 574.553 43Z" fill="#28282E"/>
<path d="M641.321 25V49.9H641.021C640.221 48 634.821 43 625.621 43C613.821 43 600.821 51.9 600.821 70C600.821 88.1 613.821 97 625.621 97C634.821 97 640.221 92 641.021 90.1H641.321V96H656.821V25H641.321ZM628.821 83.2C622.221 83.2 616.121 78.4 616.121 70C616.121 61.6 622.221 56.8 628.821 56.8C635.621 56.8 641.721 61.5 641.721 70C641.721 78.5 635.621 83.2 628.821 83.2Z" fill="#28282E"/>
</svg>
