<svg width="772" height="120" viewBox="0 0 772 120" fill="none" xmlns="http://www.w3.org/2000/svg">
<path d="M0 27.8789L27.2725 43.6364V70.3028L0 54.5454V27.8789Z" fill="black"/>
<path d="M47.8784 0L74.5448 15.1514L27.2725 43.636L0 27.8786L47.8784 0Z" fill="#28282E"/>
<path d="M74.5476 92.1213L47.2751 76.3639L47.2751 49.6974L74.5476 65.4549L74.5476 92.1213Z" fill="black"/>
<path d="M26.6682 120L0.00178127 104.849L47.2741 76.364L74.5466 92.1214L26.6682 120Z" fill="#28282E"/>
<path d="M142.5 88C154.5 88 167.7 80.9 167.7 66.1C167.7 56.3 162 50.5 149.2 45.4L144.4 43.5C137 40.5 135.2 38.1 135.2 35C135.2 31 138.5 29 142.8 29C147.2 29 150.8 31.3 153.9 36.7L165.6 30.1C162.2 22.6 154.7 15 142.2 15C129.9 15 119.6 22.5 119.6 34.8C119.6 46.3 128.3 51.5 137.8 55.3L142.2 57C149 59.7 151.3 61.7 151.3 65.9C151.3 71.4 147 73.7 142.3 73.7C135.6 73.7 131.8 69.1 129.8 64.3L117 70.2C119.7 80.6 130 88 142.5 88Z" fill="#28282E"/>
<path d="M174.578 29.5H190.078V16H174.578V29.5ZM174.578 87H190.078V35H174.578V87Z" fill="#28282E"/>
<path d="M223.48 34C210.08 34 196.98 43.5 196.98 61.1C196.98 78.2 209.98 88 224.38 88C233.88 88 241.28 84.1 245.58 78.7L238.58 71.4C234.78 74.3 230.68 75.4 226.08 75.4C219.18 75.4 213.98 72.6 211.88 67H248.88C252.18 43.2 236.68 34 223.48 34ZM223.68 47C228.88 47 234.18 49.9 235.28 55.9H211.58C213.28 49.7 218.48 47 223.68 47Z" fill="#28282E"/>
<path d="M287.216 34C279.816 34 274.716 37.2 271.816 41.6V35H256.316V87H271.816V59.1C271.816 52.6 275.116 47.8 281.416 47.8C287.816 47.8 291.116 52.6 291.116 59.1V87H306.616V56.4C306.616 40.5 297.716 34 287.216 34Z" fill="#28282E"/>
<path d="M346.884 34C339.484 34 334.384 37.2 331.484 41.6V35H315.984V87H331.484V59.1C331.484 52.6 334.784 47.8 341.084 47.8C347.484 47.8 350.784 52.6 350.784 59.1V87H366.284V56.4C366.284 40.5 357.384 34 346.884 34Z" fill="#28282E"/>
<path d="M397.952 88C407.152 88 412.552 83 413.352 81.1H413.652V87H429.152V35H413.652V40.9H413.352C412.552 39 407.152 34 397.952 34C386.152 34 373.152 42.9 373.152 61C373.152 79.1 386.152 88 397.952 88ZM401.152 74.2C394.552 74.2 388.452 69.4 388.452 61C388.452 52.6 394.552 47.8 401.152 47.8C407.952 47.8 414.052 52.5 414.052 61C414.052 69.5 407.952 74.2 401.152 74.2Z" fill="#28282E"/>
<path d="M454.343 72.5V16H438.543V87H480.743V72.5H454.343Z" fill="#28282E"/>
<path d="M506.644 88C515.844 88 521.244 83 522.044 81.1H522.344V87H537.844V35H522.344V40.9H522.044C521.244 39 515.844 34 506.644 34C494.844 34 481.844 42.9 481.844 61C481.844 79.1 494.844 88 506.644 88ZM509.844 74.2C503.244 74.2 497.144 69.4 497.144 61C497.144 52.6 503.244 47.8 509.844 47.8C516.644 47.8 522.744 52.5 522.744 61C522.744 69.5 516.644 74.2 509.844 74.2Z" fill="#28282E"/>
<path d="M582.034 35V62.9C582.034 69.4 578.734 74.2 572.434 74.2C566.034 74.2 562.734 69.4 562.734 62.9V35H547.234V65.6C547.234 81.5 556.134 88 566.634 88C574.034 88 579.134 84.8 582.034 80.4V87H597.534V35H582.034Z" fill="#28282E"/>
<path d="M637.802 34C630.402 34 625.302 37.2 622.402 41.6V35H606.902V87H622.402V59.1C622.402 52.6 625.702 47.8 632.002 47.8C638.402 47.8 641.702 52.6 641.702 59.1V87H657.202V56.4C657.202 40.5 648.302 34 637.802 34Z" fill="#28282E"/>
<path d="M691.77 88C700.97 88 709.07 83.6 714.17 75.2L702.97 67.9C700.47 71.3 696.77 74 691.77 74C685.07 74 679.37 69 679.37 60.9C679.37 53 685.07 48 691.77 48C696.77 48 700.47 50.7 702.97 54.1L714.17 46.8C709.07 38.2 700.97 34 691.77 34C677.87 34 664.07 43.3 664.07 60.9C664.07 78.7 677.87 88 691.77 88Z" fill="#28282E"/>
<path d="M751.962 34C744.562 34 739.462 37.2 736.562 41.6V16H721.062V87H736.562V59.1C736.562 52.6 739.862 47.8 746.162 47.8C752.562 47.8 755.862 52.6 755.862 59.1V87H771.362V56.4C771.362 40.5 762.462 34 751.962 34Z" fill="#28282E"/>
</svg>
