<svg width="699" height="120" viewBox="0 0 699 120" fill="none" xmlns="http://www.w3.org/2000/svg">
<path d="M0 27.8789L27.2725 43.6364V70.3028L0 54.5454V27.8789Z" fill="black"/>
<path d="M47.8784 0L74.5448 15.1514L27.2725 43.636L0 27.8786L47.8784 0Z" fill="#28282E"/>
<path d="M74.5476 92.1213L47.2751 76.3639L47.2751 49.6974L74.5476 65.4549L74.5476 92.1213Z" fill="black"/>
<path d="M26.6682 120L0.00178127 104.849L47.2741 76.364L74.5466 92.1214L26.6682 120Z" fill="#28282E"/>
<path d="M142.63 96C154.63 96 167.83 88.9 167.83 74.1C167.83 64.3 162.13 58.5 149.33 53.4L144.53 51.5C137.13 48.5 135.33 46.1 135.33 43C135.33 39 138.63 37 142.93 37C147.33 37 150.93 39.3 154.03 44.7L165.73 38.1C162.33 30.6 154.83 23 142.33 23C130.03 23 119.73 30.5 119.73 42.8C119.73 54.3 128.43 59.5 137.93 63.3L142.33 65C149.13 67.7 151.43 69.7 151.43 73.9C151.43 79.4 147.13 81.7 142.43 81.7C135.73 81.7 131.93 77.1 129.93 72.3L117.13 78.2C119.83 88.6 130.13 96 142.63 96Z" fill="#28282E"/>
<path d="M174.708 37.5H190.208V24H174.708V37.5ZM174.708 95H190.208V43H174.708V95Z" fill="#28282E"/>
<path d="M223.61 42C210.21 42 197.11 51.5 197.11 69.1C197.11 86.2 210.11 96 224.51 96C234.01 96 241.41 92.1 245.71 86.7L238.71 79.4C234.91 82.3 230.81 83.4 226.21 83.4C219.31 83.4 214.11 80.6 212.01 75H249.01C252.31 51.2 236.81 42 223.61 42ZM223.81 55C229.01 55 234.31 57.9 235.41 63.9H211.71C213.41 57.7 218.61 55 223.81 55Z" fill="#28282E"/>
<path d="M287.346 42C279.946 42 274.846 45.2 271.946 49.6V43H256.446V95H271.946V67.1C271.946 60.6 275.246 55.8 281.546 55.8C287.946 55.8 291.246 60.6 291.246 67.1V95H306.746V64.4C306.746 48.5 297.846 42 287.346 42Z" fill="#28282E"/>
<path d="M347.014 42C339.614 42 334.514 45.2 331.614 49.6V43H316.114V95H331.614V67.1C331.614 60.6 334.914 55.8 341.214 55.8C347.614 55.8 350.914 60.6 350.914 67.1V95H366.414V64.4C366.414 48.5 357.514 42 347.014 42Z" fill="#28282E"/>
<path d="M398.082 96C407.282 96 412.682 91 413.482 89.1H413.782V95H429.282V43H413.782V48.9H413.482C412.682 47 407.282 42 398.082 42C386.282 42 373.282 50.9 373.282 69C373.282 87.1 386.282 96 398.082 96ZM401.282 82.2C394.682 82.2 388.582 77.4 388.582 69C388.582 60.6 394.682 55.8 401.282 55.8C408.082 55.8 414.182 60.5 414.182 69C414.182 77.5 408.082 82.2 401.282 82.2Z" fill="#28282E"/>
<path d="M461.673 96C473.673 96 486.873 88.9 486.873 74.1C486.873 64.3 481.173 58.5 468.373 53.4L463.573 51.5C456.173 48.5 454.373 46.1 454.373 43C454.373 39 457.673 37 461.973 37C466.373 37 469.973 39.3 473.073 44.7L484.773 38.1C481.373 30.6 473.873 23 461.373 23C449.073 23 438.773 30.5 438.773 42.8C438.773 54.3 447.473 59.5 456.973 63.3L461.373 65C468.173 67.7 470.473 69.7 470.473 73.9C470.473 79.4 466.173 81.7 461.473 81.7C454.773 81.7 450.973 77.1 448.973 72.3L436.173 78.2C438.873 88.6 449.173 96 461.673 96Z" fill="#28282E"/>
<path d="M561.024 43L550.124 76.7L538.824 43H524.824L513.524 76.7L502.624 43H487.224L506.224 95H520.324L531.824 62.7L543.324 95H557.424L576.424 43H561.024Z" fill="#28282E"/>
<path d="M601.598 96C610.798 96 616.198 91 616.998 89.1H617.298V95H632.798V43H617.298V48.9H616.998C616.198 47 610.798 42 601.598 42C589.798 42 576.798 50.9 576.798 69C576.798 87.1 589.798 96 601.598 96ZM604.798 82.2C598.198 82.2 592.098 77.4 592.098 69C592.098 60.6 598.198 55.8 604.798 55.8C611.598 55.8 617.698 60.5 617.698 69C617.698 77.5 611.598 82.2 604.798 82.2Z" fill="#28282E"/>
<path d="M673.388 42C664.188 42 658.788 47 657.988 48.9H657.688V43H642.188V114H657.688V89.1H657.988C658.788 91 664.188 96 673.388 96C685.188 96 698.188 87.1 698.188 69C698.188 50.9 685.188 42 673.388 42ZM670.188 82.2C663.388 82.2 657.288 77.5 657.288 69C657.288 60.5 663.388 55.8 670.188 55.8C676.788 55.8 682.988 60.6 682.988 69C682.988 77.4 676.788 82.2 670.188 82.2Z" fill="#28282E"/>
</svg>
