<svg width="54" height="54" viewBox="0 0 54 54" fill="none" xmlns="http://www.w3.org/2000/svg">
<path fill-rule="evenodd" clip-rule="evenodd" d="M26.5004 0.00459611C26.6667 0.00153621 26.8332 0 27.0002 0C27.1671 0 27.3337 0.00153621 27.4999 0.00459611C28.6503 0.0257715 29.5657 0.97552 29.5445 2.12592C29.5234 3.27632 28.5736 4.19173 27.4232 4.17056C27.2825 4.16797 27.1415 4.16667 27.0002 4.16667C26.8588 4.16667 26.7178 4.16797 26.5771 4.17056C25.4267 4.19173 24.477 3.27632 24.4558 2.12592C24.4346 0.97552 25.35 0.0257715 26.5004 0.00459611ZM42.5549 7.51607C43.3532 6.6875 44.6721 6.66298 45.5006 7.46132C45.7399 7.69189 45.9749 7.9269 46.2055 8.16621C47.0038 8.99478 46.9793 10.3136 46.1508 11.112C45.3222 11.9103 44.0033 11.8858 43.205 11.0572C43.0102 10.8551 42.8117 10.6566 42.6096 10.4618C41.781 9.66351 41.7565 8.34464 42.5549 7.51607ZM11.4455 7.51607C12.2438 8.34464 12.2193 9.66351 11.3907 10.4618C11.1886 10.6566 10.9901 10.8551 10.7953 11.0572C9.997 11.8858 8.67814 11.9103 7.84957 11.112C7.02099 10.3136 6.99648 8.99478 7.79481 8.16621C8.02539 7.9269 8.26039 7.69189 8.4997 7.46132C9.32827 6.66298 10.6471 6.6875 11.4455 7.51607ZM2.45941 24.1223C3.60981 24.1435 4.52523 25.0932 4.50405 26.2436C4.50146 26.3843 4.50016 26.5253 4.50016 26.6667C4.50016 26.808 4.50146 26.949 4.50405 27.0897C4.52523 28.2401 3.60981 29.1899 2.45941 29.211C1.30902 29.2322 0.359268 28.3168 0.338092 27.1664C0.335032 27.0002 0.333496 26.8336 0.333496 26.6667C0.333496 26.4998 0.335032 26.3332 0.338092 26.1669C0.359268 25.0165 1.30902 24.1011 2.45941 24.1223ZM51.5409 24.1223C52.6913 24.1011 53.6411 25.0165 53.6622 26.1669C53.6653 26.3332 53.6668 26.4998 53.6668 26.6667C53.6668 26.8336 53.6653 27.0002 53.6622 27.1664C53.6411 28.3168 52.6913 29.2322 51.5409 29.211C50.3905 29.1899 49.4751 28.2401 49.4963 27.0897C49.4989 26.949 49.5002 26.808 49.5002 26.6667C49.5002 26.5253 49.4989 26.3843 49.4963 26.2436C49.4751 25.0932 50.3905 24.1435 51.5409 24.1223ZM7.84957 42.2214C8.67814 41.423 9.997 41.4475 10.7953 42.2761C10.9901 42.4782 11.1886 42.6767 11.3907 42.8715C12.2193 43.6698 12.2438 44.9887 11.4455 45.8173C10.6471 46.6458 9.32827 46.6704 8.4997 45.872C8.2604 45.6414 8.02539 45.4064 7.79481 45.1671C6.99648 44.3386 7.02099 43.0197 7.84957 42.2214ZM46.1508 42.2214C46.9793 43.0197 47.0038 44.3386 46.2055 45.1671C45.9749 45.4064 45.7399 45.6414 45.5006 45.872C44.6721 46.6703 43.3532 46.6458 42.5549 45.8173C41.7565 44.9887 41.781 43.6698 42.6096 42.8715C42.8117 42.6767 43.0102 42.4782 43.205 42.2761C44.0033 41.4475 45.3222 41.423 46.1508 42.2214ZM24.4558 51.2074C24.477 50.057 25.4267 49.1416 26.5771 49.1628C26.7178 49.1654 26.8588 49.1667 27.0002 49.1667C27.1415 49.1667 27.2825 49.1654 27.4232 49.1628C28.5736 49.1416 29.5234 50.057 29.5445 51.2074C29.5657 52.3578 28.6503 53.3076 27.4999 53.3287C27.3337 53.3318 27.1671 53.3333 27.0002 53.3333C26.8332 53.3333 26.6667 53.3318 26.5004 53.3287C25.35 53.3076 24.4346 52.3578 24.4558 51.2074Z" fill="#FF005C"/>
<path fill-rule="evenodd" clip-rule="evenodd" d="M26.6485 7.11461C26.7654 7.11243 26.8826 7.11133 27 7.11133C27.1173 7.11133 27.2345 7.11243 27.3514 7.11461C29.3867 7.1527 31.0063 8.86101 30.9688 10.9302C30.9314 12.9994 29.2511 14.646 27.2158 14.6079C27.144 14.6066 27.0721 14.6059 27 14.6059C26.9278 14.6059 26.8559 14.6066 26.7842 14.6079C24.7489 14.646 23.0686 12.9994 23.0311 10.9302C22.9936 8.86101 24.6132 7.1527 26.6485 7.11461ZM19.1701 12.5573C20.5826 14.0476 20.5392 16.4199 19.0733 17.8558C18.9705 17.9565 18.8695 18.0591 18.7705 18.1636C17.3581 19.654 15.0247 19.6981 13.5588 18.2621C12.0929 16.8262 12.0495 14.4539 13.4619 12.9636C13.6244 12.7922 13.7899 12.6239 13.9585 12.4588C15.4244 11.0228 17.7577 11.0669 19.1701 12.5573ZM34.8298 12.5573C36.2422 11.0669 38.5755 11.0228 40.0415 12.4588C40.21 12.6239 40.3756 12.7922 40.538 12.9636C41.9504 14.4539 41.907 16.8262 40.4411 18.2621C38.9752 19.6981 36.6419 19.654 35.2294 18.1636C35.1304 18.0591 35.0294 17.9565 34.9267 17.8558C33.4607 16.4199 33.4174 14.0476 34.8298 12.5573ZM42.0415 22.1874C44.0768 22.1493 45.7571 23.7959 45.7945 25.8651C45.7967 25.984 45.7978 26.1031 45.7978 26.2224C45.7978 26.3418 45.7967 26.4609 45.7945 26.5798C45.7571 28.649 44.0768 30.2955 42.0415 30.2574C40.0062 30.2194 38.3866 28.511 38.4241 26.4418C38.4254 26.3689 38.4261 26.2958 38.4261 26.2224C38.4261 26.1491 38.4254 26.076 38.4241 26.003C38.3866 23.9338 40.0062 22.2255 42.0415 22.1874ZM11.9584 22.1874C13.9937 22.2255 15.6133 23.9338 15.5758 26.003C15.5745 26.076 15.5738 26.1491 15.5738 26.2224C15.5738 26.2958 15.5745 26.3689 15.5758 26.4418C15.6133 28.5111 13.9937 30.2194 11.9584 30.2574C9.92314 30.2955 8.24284 28.649 8.20538 26.5798C8.20323 26.4609 8.20215 26.3418 8.20215 26.2224C8.20215 26.1031 8.20323 25.984 8.20538 25.8651C8.24284 23.7959 9.92314 22.1493 11.9584 22.1874ZM13.5588 34.1828C15.0247 32.7468 17.3581 32.7909 18.7705 34.2812C18.8695 34.3857 18.9705 34.4884 19.0733 34.5891C20.5392 36.025 20.5826 38.3973 19.1701 39.8876C17.7577 41.378 15.4244 41.422 13.9585 39.9861C13.7899 39.821 13.6244 39.6527 13.4619 39.4813C12.0495 37.9909 12.0929 35.6187 13.5588 34.1828ZM40.4411 34.1828C41.907 35.6187 41.9504 37.9909 40.538 39.4813C40.3756 39.6527 40.21 39.821 40.0415 39.9861C38.5755 41.422 36.2422 41.378 34.8298 39.8876C33.4174 38.3973 33.4607 36.025 34.9267 34.5891C35.0294 34.4884 35.1304 34.3857 35.2294 34.2812C36.6419 32.7909 38.9752 32.7468 40.4411 34.1828ZM23.0311 41.5147C23.0686 39.4454 24.7489 37.7989 26.7842 37.837C26.8559 37.8383 26.9278 37.839 27 37.839C27.0721 37.839 27.144 37.8383 27.2158 37.837C29.2511 37.7989 30.9314 39.4454 30.9688 41.5147C31.0063 43.5839 29.3867 45.2922 27.3514 45.3303C27.2345 45.3325 27.1173 45.3335 27 45.3335C26.8826 45.3335 26.7654 45.3325 26.6485 45.3303C24.6132 45.2922 22.9936 43.5839 23.0311 41.5147Z" fill="white"/>
</svg>
