<svg width="78" height="83" viewBox="0 0 78 83" fill="none" xmlns="http://www.w3.org/2000/svg">
<path d="M2.85103 81.9918V74.8918H0.0510254V73.2418H7.67603V74.8918H4.87603V81.9918H2.85103Z" fill="white"/>
<path d="M14.511 73.2418H16.536V81.9918H14.511V73.2418ZM10.536 81.9918H8.51096V73.2418H10.536V81.9918ZM14.661 78.4043H10.386V76.6918H14.661V78.4043Z" fill="white"/>
<path d="M22.6016 82.1418C21.9099 82.1418 21.2682 82.0293 20.6766 81.8043C20.0932 81.5793 19.5849 81.2626 19.1516 80.8543C18.7266 80.446 18.3932 79.9668 18.1516 79.4168C17.9182 78.8668 17.8015 78.2668 17.8015 77.6168C17.8015 76.9668 17.9182 76.3668 18.1516 75.8168C18.3932 75.2668 18.7307 74.7876 19.1641 74.3793C19.5974 73.971 20.1057 73.6543 20.6891 73.4293C21.2724 73.2043 21.9057 73.0918 22.5891 73.0918C23.2807 73.0918 23.914 73.2043 24.489 73.4293C25.0724 73.6543 25.5766 73.971 26.0016 74.3793C26.4349 74.7876 26.7724 75.2668 27.0141 75.8168C27.2557 76.3585 27.3766 76.9585 27.3766 77.6168C27.3766 78.2668 27.2557 78.871 27.0141 79.4293C26.7724 79.9793 26.4349 80.4585 26.0016 80.8668C25.5766 81.2668 25.0724 81.5793 24.489 81.8043C23.914 82.0293 23.2849 82.1418 22.6016 82.1418ZM22.5891 80.4168C22.9807 80.4168 23.3391 80.3501 23.6641 80.2168C23.9974 80.0835 24.2891 79.8918 24.5391 79.6418C24.7891 79.3918 24.9807 79.096 25.114 78.7543C25.2557 78.4126 25.3266 78.0335 25.3266 77.6168C25.3266 77.2001 25.2557 76.821 25.114 76.4793C24.9807 76.1376 24.7891 75.8418 24.5391 75.5918C24.2974 75.3418 24.0099 75.1501 23.6765 75.0168C23.3432 74.8835 22.9807 74.8168 22.5891 74.8168C22.1974 74.8168 21.8349 74.8835 21.5016 75.0168C21.1765 75.1501 20.8891 75.3418 20.6391 75.5918C20.3891 75.8418 20.1932 76.1376 20.0515 76.4793C19.9182 76.821 19.8516 77.2001 19.8516 77.6168C19.8516 78.0251 19.9182 78.4043 20.0515 78.7543C20.1932 79.096 20.3849 79.3918 20.6266 79.6418C20.8766 79.8918 21.1682 80.0835 21.5016 80.2168C21.8349 80.3501 22.1974 80.4168 22.5891 80.4168Z" fill="white"/>
<path d="M28.6438 81.9918V73.2418H32.4313C33.2146 73.2418 33.8896 73.371 34.4563 73.6293C35.023 73.8793 35.4605 74.2418 35.7688 74.7168C36.0771 75.1918 36.2313 75.7585 36.2313 76.4168C36.2313 77.0668 36.0771 77.6293 35.7688 78.1043C35.4605 78.571 35.023 78.9293 34.4563 79.1793C33.8896 79.4293 33.2146 79.5543 32.4313 79.5543H29.7688L30.6688 78.6668V81.9918H28.6438ZM34.2063 81.9918L32.0188 78.8168H34.1813L36.3938 81.9918H34.2063ZM30.6688 78.8918L29.7688 77.9418H32.3188C32.9438 77.9418 33.4105 77.8085 33.7188 77.5418C34.0271 77.2668 34.1813 76.8918 34.1813 76.4168C34.1813 75.9335 34.0271 75.5585 33.7188 75.2918C33.4105 75.0251 32.9438 74.8918 32.3188 74.8918H29.7688L30.6688 73.9293V78.8918Z" fill="white"/>
<path d="M39.6811 81.9918L36.8186 73.2418H38.9186L41.4061 80.9918H40.3561L42.9561 73.2418H44.8311L47.3311 80.9918H46.3186L48.8686 73.2418H50.8061L47.9436 81.9918H45.7686L43.5561 75.1918H44.1311L41.8561 81.9918H39.6811Z" fill="white"/>
<path d="M55.1689 81.9918V80.6793L55.0439 80.3918V78.0418C55.0439 77.6251 54.9148 77.3001 54.6564 77.0668C54.4064 76.8335 54.0189 76.7168 53.4939 76.7168C53.1356 76.7168 52.7814 76.7751 52.4314 76.8918C52.0898 77.0001 51.7981 77.1501 51.5564 77.3418L50.8564 75.9793C51.2231 75.721 51.6648 75.521 52.1814 75.3793C52.6981 75.2376 53.2231 75.1668 53.7564 75.1668C54.7814 75.1668 55.5773 75.4085 56.1439 75.8918C56.7106 76.3751 56.9939 77.1293 56.9939 78.1543V81.9918H55.1689ZM53.1189 82.0918C52.5939 82.0918 52.1439 82.0043 51.7689 81.8293C51.3939 81.646 51.1064 81.4001 50.9064 81.0918C50.7064 80.7835 50.6064 80.4376 50.6064 80.0543C50.6064 79.6543 50.7023 79.3043 50.8939 79.0043C51.0939 78.7043 51.4064 78.471 51.8314 78.3043C52.2564 78.1293 52.8106 78.0418 53.4939 78.0418H55.2814V79.1793H53.7064C53.2481 79.1793 52.9314 79.2543 52.7564 79.4043C52.5898 79.5543 52.5064 79.7418 52.5064 79.9668C52.5064 80.2168 52.6023 80.4168 52.7939 80.5668C52.9939 80.7085 53.2648 80.7793 53.6064 80.7793C53.9314 80.7793 54.2231 80.7043 54.4814 80.5543C54.7398 80.396 54.9273 80.1668 55.0439 79.8668L55.3439 80.7668C55.2023 81.2001 54.9439 81.5293 54.5689 81.7543C54.1939 81.9793 53.7106 82.0918 53.1189 82.0918Z" fill="white"/>
<path d="M58.5042 81.9918V72.7168H60.4542V81.9918H58.5042Z" fill="white"/>
<path d="M62.0093 81.9918V72.7168H63.9593V81.9918H62.0093Z" fill="white"/>
<path d="M68.852 82.0918C68.0853 82.0918 67.4103 81.9418 66.827 81.6418C66.252 81.3418 65.8061 80.9335 65.4894 80.4168C65.1728 79.8918 65.0145 79.296 65.0145 78.6293C65.0145 77.9543 65.1686 77.3585 65.477 76.8418C65.7936 76.3168 66.2228 75.9085 66.7645 75.6168C67.3061 75.3168 67.9186 75.1668 68.602 75.1668C69.2603 75.1668 69.8519 75.3085 70.3769 75.5918C70.9103 75.8668 71.3311 76.2668 71.6395 76.7918C71.9478 77.3085 72.102 77.9293 72.102 78.6543C72.102 78.7293 72.0978 78.8168 72.0894 78.9168C72.0811 79.0085 72.0728 79.096 72.0644 79.1793H66.602V78.0418H71.0395L70.2895 78.3793C70.2895 78.0293 70.2186 77.7251 70.077 77.4668C69.9353 77.2085 69.7394 77.0085 69.4894 76.8668C69.2394 76.7168 68.9478 76.6418 68.6144 76.6418C68.2811 76.6418 67.9853 76.7168 67.727 76.8668C67.477 77.0085 67.2811 77.2126 67.1395 77.4793C66.9978 77.7376 66.9269 78.046 66.9269 78.4043V78.7043C66.9269 79.071 67.0061 79.396 67.1645 79.6793C67.3311 79.9543 67.5603 80.1668 67.852 80.3168C68.152 80.4585 68.5019 80.5293 68.9019 80.5293C69.2603 80.5293 69.5728 80.4751 69.8394 80.3668C70.1144 80.2585 70.3644 80.096 70.5894 79.8793L71.6269 81.0043C71.3186 81.3543 70.9311 81.6251 70.4644 81.8168C69.9978 82.0001 69.4603 82.0918 68.852 82.0918Z" fill="white"/>
<path d="M75.8956 82.0918C75.1039 82.0918 74.4872 81.8918 74.0456 81.4918C73.6039 81.0835 73.3831 80.4793 73.3831 79.6793V73.7793H75.3331V79.6543C75.3331 79.9376 75.4081 80.1585 75.5581 80.3168C75.7081 80.4668 75.9122 80.5418 76.1706 80.5418C76.4789 80.5418 76.7414 80.4585 76.9581 80.2918L77.4831 81.6668C77.2831 81.8085 77.0414 81.9168 76.7581 81.9918C76.4831 82.0585 76.1956 82.0918 75.8956 82.0918ZM72.3456 76.9168V75.4168H77.0081V76.9168H72.3456Z" fill="white"/>
<path fill-rule="evenodd" clip-rule="evenodd" d="M42.1466 30.8844L26.8311 16.6607L69.5037 0.250244L42.1466 30.8844ZM57.4629 45.1261L9.0498 63.8137L42.1473 30.8843L57.4629 45.1261Z" fill="url(#paint0_linear_274_36)"/>
<defs>
<linearGradient id="paint0_linear_274_36" x1="9.0498" y1="63.8136" x2="69.5037" y2="63.8136" gradientUnits="userSpaceOnUse">
<stop stop-color="#00CCFF"/>
<stop offset="1" stop-color="#33FF99"/>
</linearGradient>
</defs>
</svg>
